<svg width="24" height="24" viewBox="0 0 24 24" fill="none" xmlns="http://www.w3.org/2000/svg">
<path fill-rule="evenodd" clip-rule="evenodd" d="M20.3395 0.0234375C20.4672 0.0277975 20.5825 0.0360975 20.6835 0.0487175C20.9453 0.0813575 20.9055 0.316257 20.8465 0.667697C19.383 9.39428 18.7352 18.7961 23.8928 23.2912C23.947 23.341 24.022 23.4456 23.9967 23.4845C23.9717 23.5233 23.8199 23.5024 23.7577 23.4985C21.2187 23.3408 10.9796 19.27 11.4143 1.80129C11.4212 1.52134 11.4586 1.39332 11.8731 1.27242C13.2591 0.868318 17.6405 0.0836175 19.8536 0.0234375H20.3395ZM3.97705 8.82098C4.21868 8.65038 6.95834 7.30064 9.47703 6.40003C9.98137 6.2395 9.97814 6.76128 10.0022 6.89829C12.3555 20.3065 18.1072 21.9938 19.7248 23.3198C19.9423 23.4644 19.6637 23.5182 19.3878 23.5048C7.75831 23.5415 4.25655 12.8463 3.61278 9.33998C3.5534 9.01668 3.73542 8.99138 3.97705 8.82098ZM0.256255 17.3264C0.852336 16.5972 2.58689 15.1338 3.30884 14.655C3.52775 14.5099 3.68622 14.8449 3.8797 15.3013C4.65947 16.9733 5.82164 18.7325 6.96424 19.8905C9.24791 22.2047 11.7455 23.0883 11.8725 23.1917C12.0672 23.3506 12.0655 23.4766 11.6922 23.4904C3.79057 23.7839 0.561252 20.0456 0.0219091 17.8802C-0.0363513 17.6463 0.0149526 17.6215 0.256255 17.3264Z" fill="url(#paint0_linear_1_941)"/>
<defs>
<linearGradient id="paint0_linear_1_941" x1="12.0009" y1="0.0234375" x2="12.0009" y2="23.5076" gradientUnits="userSpaceOnUse">
<stop stop-color="#F7E9E2"/>
<stop offset="1" stop-color="#DADEF1"/>
</linearGradient>
</defs>
</svg>
